<svg version="1.1" xmlns="http://www.w3.org/2000/svg" xmlns:xlink="http://www.w3.org/1999/xlink" width="548.16455078125" height="316"><defs/><g><g transform="translate(-262,-278) scale(1,1)"><rect fill="#C0C0C0" stroke="none" x="279" y="295" width="142.39453125" height="105" opacity="0.2"/></g><g transform="translate(-262,-278) scale(1,1)"><rect fill="#ffffff" stroke="none" x="272" y="288" width="142.39453125" height="105"/></g><g transform="translate(-262,-278) scale(1,1)"><path fill="none" stroke="#000000" d="M 272 288 L 414.39453125 288 L 414.39453125 393 L 272 393 L 272 288 Z Z" stroke-miterlimit="10"/></g><g transform="translate(-262,-278) scale(1,1)"><path fill="none" stroke="#000000" d="M 272 311 L 414.39453125 311" stroke-miterlimit="10"/></g><g transform="translate(-262,-278) scale(1,1)"><path fill="none" stroke="#000000" d="M 282 311 L 282 393" stroke-miterlimit="10"/></g><g transform="translate(-262,-278) scale(1,1)"><path fill="none" stroke="#000000" d="M 353.419921875 311 L 353.419921875 393" stroke-miterlimit="10"/></g><g transform="translate(-262,-278) scale(1,1)"><g><path fill="none" stroke="none"/><text fill="#000000" stroke="none" font-family="Arial" font-size="13px" font-style="normal" font-weight="bold" text-decoration="none" x="329.4736328125" y="305.5">User</text></g></g><g transform="translate(-262,-278) scale(1,1)"><g><path fill="none" stroke="none"/><text fill="#000000" stroke="none" font-family="Arial" font-size="13px" font-style="normal" font-weight="normal" text-decoration="none" x="277" y="329"></text></g></g><g transform="translate(-262,-278) scale(1,1)"><g><path fill="none" stroke="none"/><text fill="#000000" stroke="none" font-family="Arial" font-size="13px" font-style="normal" font-weight="normal" text-decoration="none" x="287" y="329">id</text></g></g><g transform="translate(-262,-278) scale(1,1)"><g><path fill="none" stroke="none"/><text fill="#000000" stroke="none" font-family="Arial" font-size="13px" font-style="normal" font-weight="normal" text-decoration="none" x="358.419921875" y="329"></text></g></g><g transform="translate(-262,-278) scale(1,1)"><g><path fill="none" stroke="none"/><text fill="#000000" stroke="none" font-family="Arial" font-size="13px" font-style="normal" font-weight="normal" text-decoration="none" x="277" y="328.5"></text></g></g><g transform="translate(-262,-278) scale(1,1)"><g><path fill="none" stroke="none"/><text fill="#000000" stroke="none" font-family="Arial" font-size="13px" font-style="normal" font-weight="normal" text-decoration="none" x="277" y="344"></text></g></g><g transform="translate(-262,-278) scale(1,1)"><g><path fill="none" stroke="none"/><text fill="#000000" stroke="none" font-family="Arial" font-size="13px" font-style="normal" font-weight="normal" text-decoration="none" x="287" y="344">username</text></g></g><g transform="translate(-262,-278) scale(1,1)"><g><path fill="none" stroke="none"/><text fill="#000000" stroke="none" font-family="Arial" font-size="13px" font-style="normal" font-weight="normal" text-decoration="none" x="358.419921875" y="344"></text></g></g><g transform="translate(-262,-278) scale(1,1)"><g><path fill="none" stroke="none"/><text fill="#000000" stroke="none" font-family="Arial" font-size="13px" font-style="normal" font-weight="normal" text-decoration="none" x="277" y="343.5"></text></g></g><g transform="translate(-262,-278) scale(1,1)"><g><path fill="none" stroke="none"/><text fill="#000000" stroke="none" font-family="Arial" font-size="13px" font-style="normal" font-weight="normal" text-decoration="none" x="277" y="359"></text></g></g><g transform="translate(-262,-278) scale(1,1)"><g><path fill="none" stroke="none"/><text fill="#000000" stroke="none" font-family="Arial" font-size="13px" font-style="normal" font-weight="normal" text-decoration="none" x="287" y="359">login</text></g></g><g transform="translate(-262,-278) scale(1,1)"><g><path fill="none" stroke="none"/><text fill="#000000" stroke="none" font-family="Arial" font-size="13px" font-style="normal" font-weight="normal" text-decoration="none" x="358.419921875" y="359"></text></g></g><g transform="translate(-262,-278) scale(1,1)"><g><path fill="none" stroke="none"/><text fill="#000000" stroke="none" font-family="Arial" font-size="13px" font-style="normal" font-weight="normal" text-decoration="none" x="277" y="358.5"></text></g></g><g transform="translate(-262,-278) scale(1,1)"><g><path fill="none" stroke="none"/><text fill="#000000" stroke="none" font-family="Arial" font-size="13px" font-style="normal" font-weight="normal" text-decoration="none" x="277" y="374"></text></g></g><g transform="translate(-262,-278) scale(1,1)"><g><path fill="none" stroke="none"/><text fill="#000000" stroke="none" font-family="Arial" font-size="13px" font-style="normal" font-weight="normal" text-decoration="none" x="287" y="374">password</text></g></g><g transform="translate(-262,-278) scale(1,1)"><g><path fill="none" stroke="none"/><text fill="#000000" stroke="none" font-family="Arial" font-size="13px" font-style="normal" font-weight="normal" text-decoration="none" x="358.419921875" y="374"></text></g></g><g transform="translate(-262,-278) scale(1,1)"><g><path fill="none" stroke="none"/><text fill="#000000" stroke="none" font-family="Arial" font-size="13px" font-style="normal" font-weight="normal" text-decoration="none" x="277" y="373.5"></text></g></g><g transform="translate(-262,-278) scale(1,1)"><g><path fill="none" stroke="none"/><text fill="#000000" stroke="none" font-family="Arial" font-size="13px" font-style="normal" font-weight="normal" text-decoration="none" x="277" y="389"></text></g></g><g transform="translate(-262,-278) scale(1,1)"><g><path fill="none" stroke="none"/><text fill="#000000" stroke="none" font-family="Arial" font-size="13px" font-style="normal" font-weight="normal" text-decoration="none" x="287" y="389">role</text></g></g><g transform="translate(-262,-278) scale(1,1)"><g><path fill="none" stroke="none"/><text fill="#000000" stroke="none" font-family="Arial" font-size="13px" font-style="normal" font-weight="normal" text-decoration="none" x="358.419921875" y="389"></text></g></g><g transform="translate(-262,-278) scale(1,1)"><g><path fill="none" stroke="none"/><text fill="#000000" stroke="none" font-family="Arial" font-size="13px" font-style="normal" font-weight="normal" text-decoration="none" x="277" y="388.5"></text></g></g><g transform="translate(-262,-278) scale(1,1)"><rect fill="#C0C0C0" stroke="none" x="519" y="295" width="84.61181640625" height="105" opacity="0.2"/></g><g transform="translate(-262,-278) scale(1,1)"><rect fill="#ffffff" stroke="none" x="512" y="288" width="84.61181640625" height="105"/></g><g transform="translate(-262,-278) scale(1,1)"><path fill="none" stroke="#000000" d="M 512 288 L 596.61181640625 288 L 596.61181640625 393 L 512 393 L 512 288 Z Z" stroke-miterlimit="10"/></g><g transform="translate(-262,-278) scale(1,1)"><path fill="none" stroke="#000000" d="M 512 311 L 596.61181640625 311" stroke-miterlimit="10"/></g><g transform="translate(-262,-278) scale(1,1)"><path fill="none" stroke="#000000" d="M 522 311 L 522 393" stroke-miterlimit="10"/></g><g transform="translate(-262,-278) scale(1,1)"><path fill="none" stroke="#000000" d="M 578.24267578125 311 L 578.24267578125 393" stroke-miterlimit="10"/></g><g transform="translate(-262,-278) scale(1,1)"><g><path fill="none" stroke="none"/><text fill="#000000" stroke="none" font-family="Arial" font-size="13px" font-style="normal" font-weight="bold" text-decoration="none" x="537.69091796875" y="305.5">Order</text></g></g><g transform="translate(-262,-278) scale(1,1)"><g><path fill="none" stroke="none"/><text fill="#000000" stroke="none" font-family="Arial" font-size="13px" font-style="normal" font-weight="normal" text-decoration="none" x="517" y="329"></text></g></g><g transform="translate(-262,-278) scale(1,1)"><g><path fill="none" stroke="none"/><text fill="#000000" stroke="none" font-family="Arial" font-size="13px" font-style="normal" font-weight="normal" text-decoration="none" x="527" y="329">id</text></g></g><g transform="translate(-262,-278) scale(1,1)"><g><path fill="none" stroke="none"/><text fill="#000000" stroke="none" font-family="Arial" font-size="13px" font-style="normal" font-weight="normal" text-decoration="none" x="583.24267578125" y="329"></text></g></g><g transform="translate(-262,-278) scale(1,1)"><g><path fill="none" stroke="none"/><text fill="#000000" stroke="none" font-family="Arial" font-size="13px" font-style="normal" font-weight="normal" text-decoration="none" x="517" y="328.5"></text></g></g><g transform="translate(-262,-278) scale(1,1)"><g><path fill="none" stroke="none"/><text fill="#000000" stroke="none" font-family="Arial" font-size="13px" font-style="normal" font-weight="normal" text-decoration="none" x="517" y="344"></text></g></g><g transform="translate(-262,-278) scale(1,1)"><g><path fill="none" stroke="none"/><text fill="#000000" stroke="none" font-family="Arial" font-size="13px" font-style="normal" font-weight="normal" text-decoration="none" x="527" y="344">user_id</text></g></g><g transform="translate(-262,-278) scale(1,1)"><g><path fill="none" stroke="none"/><text fill="#000000" stroke="none" font-family="Arial" font-size="13px" font-style="normal" font-weight="normal" text-decoration="none" x="583.24267578125" y="344"></text></g></g><g transform="translate(-262,-278) scale(1,1)"><g><path fill="none" stroke="none"/><text fill="#000000" stroke="none" font-family="Arial" font-size="13px" font-style="normal" font-weight="normal" text-decoration="none" x="517" y="343.5"></text></g></g><g transform="translate(-262,-278) scale(1,1)"><g><path fill="none" stroke="none"/><text fill="#000000" stroke="none" font-family="Arial" font-size="13px" font-style="normal" font-weight="normal" text-decoration="none" x="517" y="359"></text></g></g><g transform="translate(-262,-278) scale(1,1)"><g><path fill="none" stroke="none"/><text fill="#000000" stroke="none" font-family="Arial" font-size="13px" font-style="normal" font-weight="normal" text-decoration="none" x="527" y="359">text</text></g></g><g transform="translate(-262,-278) scale(1,1)"><g><path fill="none" stroke="none"/><text fill="#000000" stroke="none" font-family="Arial" font-size="13px" font-style="normal" font-weight="normal" text-decoration="none" x="583.24267578125" y="359"></text></g></g><g transform="translate(-262,-278) scale(1,1)"><g><path fill="none" stroke="none"/><text fill="#000000" stroke="none" font-family="Arial" font-size="13px" font-style="normal" font-weight="normal" text-decoration="none" x="517" y="358.5"></text></g></g><g transform="translate(-262,-278) scale(1,1)"><g><path fill="none" stroke="none"/><text fill="#000000" stroke="none" font-family="Arial" font-size="13px" font-style="normal" font-weight="normal" text-decoration="none" x="517" y="374"></text></g></g><g transform="translate(-262,-278) scale(1,1)"><g><path fill="none" stroke="none"/><text fill="#000000" stroke="none" font-family="Arial" font-size="13px" font-style="normal" font-weight="normal" text-decoration="none" x="527" y="374">price</text></g></g><g transform="translate(-262,-278) scale(1,1)"><g><path fill="none" stroke="none"/><text fill="#000000" stroke="none" font-family="Arial" font-size="13px" font-style="normal" font-weight="normal" text-decoration="none" x="583.24267578125" y="374"></text></g></g><g transform="translate(-262,-278) scale(1,1)"><g><path fill="none" stroke="none"/><text fill="#000000" stroke="none" font-family="Arial" font-size="13px" font-style="normal" font-weight="normal" text-decoration="none" x="517" y="373.5"></text></g></g><g transform="translate(-262,-278) scale(1,1)"><g><path fill="none" stroke="none"/><text fill="#000000" stroke="none" font-family="Arial" font-size="13px" font-style="normal" font-weight="normal" text-decoration="none" x="517" y="389"></text></g></g><g transform="translate(-262,-278) scale(1,1)"><g><path fill="none" stroke="none"/><text fill="#000000" stroke="none" font-family="Arial" font-size="13px" font-style="normal" font-weight="normal" text-decoration="none" x="527" y="389">date</text></g></g><g transform="translate(-262,-278) scale(1,1)"><g><path fill="none" stroke="none"/><text fill="#000000" stroke="none" font-family="Arial" font-size="13px" font-style="normal" font-weight="normal" text-decoration="none" x="583.24267578125" y="389"></text></g></g><g transform="translate(-262,-278) scale(1,1)"><g><path fill="none" stroke="none"/><text fill="#000000" stroke="none" font-family="Arial" font-size="13px" font-style="normal" font-weight="normal" text-decoration="none" x="517" y="388.5"></text></g></g><g transform="translate(-262,-278) scale(1,1)"><rect fill="#C0C0C0" stroke="none" x="479" y="479" width="164.0654296875" height="112" opacity="0.2"/></g><g transform="translate(-262,-278) scale(1,1)"><rect fill="#ffffff" stroke="none" x="472" y="472" width="164.0654296875" height="112"/></g><g transform="translate(-262,-278) scale(1,1)"><path fill="none" stroke="#000000" d="M 472 472 L 636.0654296875 472 L 636.0654296875 584 L 472 584 L 472 472 Z Z" stroke-miterlimit="10"/></g><g transform="translate(-262,-278) scale(1,1)"><path fill="none" stroke="#000000" d="M 472 495 L 636.0654296875 495" stroke-miterlimit="10"/></g><g transform="translate(-262,-278) scale(1,1)"><path fill="none" stroke="#000000" d="M 482 495 L 482 584" stroke-miterlimit="10"/></g><g transform="translate(-262,-278) scale(1,1)"><path fill="none" stroke="#000000" d="M 562.0654296875 495 L 562.0654296875 584" stroke-miterlimit="10"/></g><g transform="translate(-262,-278) scale(1,1)"><g><path fill="none" stroke="none"/><text fill="#000000" stroke="none" font-family="Arial" font-size="13px" font-style="normal" font-weight="bold" text-decoration="none" x="531.6318359375" y="489.5">Product</text></g></g><g transform="translate(-262,-278) scale(1,1)"><g><path fill="none" stroke="none"/><text fill="#000000" stroke="none" font-family="Arial" font-size="13px" font-style="normal" font-weight="normal" text-decoration="none" x="477" y="513"></text></g></g><g transform="translate(-262,-278) scale(1,1)"><g><path fill="none" stroke="none"/><text fill="#000000" stroke="none" font-family="Arial" font-size="13px" font-style="normal" font-weight="normal" text-decoration="none" x="487" y="513">id</text></g></g><g transform="translate(-262,-278) scale(1,1)"><g><path fill="none" stroke="none"/><text fill="#000000" stroke="none" font-family="Arial" font-size="13px" font-style="normal" font-weight="normal" text-decoration="none" x="567.0654296875" y="513"></text></g></g><g transform="translate(-262,-278) scale(1,1)"><g><path fill="none" stroke="none"/><text fill="#000000" stroke="none" font-family="Arial" font-size="13px" font-style="normal" font-weight="normal" text-decoration="none" x="477" y="512.5"></text></g></g><g transform="translate(-262,-278) scale(1,1)"><g><path fill="none" stroke="none"/><text fill="#000000" stroke="none" font-family="Arial" font-size="13px" font-style="normal" font-weight="normal" text-decoration="none" x="477" y="528"></text></g></g><g transform="translate(-262,-278) scale(1,1)"><g><path fill="none" stroke="none"/><text fill="#000000" stroke="none" font-family="Arial" font-size="13px" font-style="normal" font-weight="normal" text-decoration="none" x="487" y="528">symbol</text></g></g><g transform="translate(-262,-278) scale(1,1)"><g><path fill="none" stroke="none"/><text fill="#000000" stroke="none" font-family="Arial" font-size="13px" font-style="normal" font-weight="normal" text-decoration="none" x="567.0654296875" y="528"></text></g></g><g transform="translate(-262,-278) scale(1,1)"><g><path fill="none" stroke="none"/><text fill="#000000" stroke="none" font-family="Arial" font-size="13px" font-style="normal" font-weight="normal" text-decoration="none" x="477" y="527.5"></text></g></g><g transform="translate(-262,-278) scale(1,1)"><g><path fill="none" stroke="none"/><text fill="#000000" stroke="none" font-family="Arial" font-size="13px" font-style="normal" font-weight="normal" text-decoration="none" x="477" y="543"></text></g></g><g transform="translate(-262,-278) scale(1,1)"><g><path fill="none" stroke="none"/><text fill="#000000" stroke="none" font-family="Arial" font-size="13px" font-style="normal" font-weight="normal" text-decoration="none" x="487" y="543">price</text></g></g><g transform="translate(-262,-278) scale(1,1)"><g><path fill="none" stroke="none"/><text fill="#000000" stroke="none" font-family="Arial" font-size="13px" font-style="normal" font-weight="normal" text-decoration="none" x="567.0654296875" y="543"></text></g></g><g transform="translate(-262,-278) scale(1,1)"><g><path fill="none" stroke="none"/><text fill="#000000" stroke="none" font-family="Arial" font-size="13px" font-style="normal" font-weight="normal" text-decoration="none" x="477" y="542.5"></text></g></g><g transform="translate(-262,-278) scale(1,1)"><g><path fill="none" stroke="none"/><text fill="#000000" stroke="none" font-family="Arial" font-size="13px" font-style="normal" font-weight="normal" text-decoration="none" x="477" y="558"></text></g></g><g transform="translate(-262,-278) scale(1,1)"><g><path fill="none" stroke="none"/><text fill="#000000" stroke="none" font-family="Arial" font-size="13px" font-style="normal" font-weight="normal" text-decoration="none" x="487" y="558">sale</text></g></g><g transform="translate(-262,-278) scale(1,1)"><g><path fill="none" stroke="none"/><text fill="#000000" stroke="none" font-family="Arial" font-size="13px" font-style="normal" font-weight="normal" text-decoration="none" x="567.0654296875" y="558"></text></g></g><g transform="translate(-262,-278) scale(1,1)"><g><path fill="none" stroke="none"/><text fill="#000000" stroke="none" font-family="Arial" font-size="13px" font-style="normal" font-weight="normal" text-decoration="none" x="477" y="557.5"></text></g></g><g transform="translate(-262,-278) scale(1,1)"><g><path fill="none" stroke="none"/><text fill="#000000" stroke="none" font-family="Arial" font-size="13px" font-style="normal" font-weight="normal" text-decoration="none" x="477" y="573"></text></g></g><g transform="translate(-262,-278) scale(1,1)"><g><path fill="none" stroke="none"/><text fill="#000000" stroke="none" font-family="Arial" font-size="13px" font-style="normal" font-weight="normal" text-decoration="none" x="487" y="573">description</text></g></g><g transform="translate(-262,-278) scale(1,1)"><g><path fill="none" stroke="none"/><text fill="#000000" stroke="none" font-family="Arial" font-size="13px" font-style="normal" font-weight="normal" text-decoration="none" x="567.0654296875" y="573"></text></g></g><g transform="translate(-262,-278) scale(1,1)"><g><path fill="none" stroke="none"/><text fill="#000000" stroke="none" font-family="Arial" font-size="13px" font-style="normal" font-weight="normal" text-decoration="none" x="477" y="572.5"></text></g></g><g transform="translate(-262,-278) scale(1,1)"><path fill="none" stroke="#000000" d="M 414 332 L 512 332" stroke-miterlimit="10"/></g><g transform="translate(-262,-278) scale(1,1)"><path fill="none" stroke="#000000" d="M 498 332 L 512 339" stroke-miterlimit="10"/></g><g transform="translate(-262,-278) scale(1,1)"><path fill="none" stroke="#000000" d="M 498 332 L 512 325" stroke-miterlimit="10"/></g><g transform="translate(-262,-278) scale(1,1)"><path fill="#FFFFFF" stroke="none" d="M 483 332 C 483 328.1340064 486.1340064 325 490 325 C 493.8659936 325 497 328.1340064 497 332 C 497 335.8659936 493.8659936 339 490 339 C 486.1340064 339 483 335.8659936 483 332 Z"/></g><g transform="translate(-262,-278) scale(1,1)"><path fill="none" stroke="#000000" d="M 483 332 C 483 328.1340064 486.1340064 325 490 325 C 493.8659936 325 497 328.1340064 497 332 C 497 335.8659936 493.8659936 339 490 339 C 486.1340064 339 483 335.8659936 483 332 Z" stroke-miterlimit="10"/></g><g transform="translate(-262,-278) scale(1,1)"><path fill="none" stroke="#000000" d="M 421 325 L 421 339" stroke-miterlimit="10"/></g><g transform="translate(-262,-278) scale(1,1)"><path fill="none" stroke="#000000" d="M 428 325 L 428 339" stroke-miterlimit="10"/></g><g transform="translate(-262,-278) scale(1,1)"><g><path fill="none" stroke="none"/><text fill="#000000" stroke="none" font-family="Arial" font-size="13px" font-style="normal" font-weight="normal" text-decoration="none" x="438.5" y="323.5"></text></g></g><g transform="translate(-262,-278) scale(1,1)"><g><path fill="none" stroke="none"/><text fill="#000000" stroke="none" font-family="Arial" font-size="13px" font-style="normal" font-weight="normal" text-decoration="none" x="485.5" y="323.5"></text></g></g><g transform="translate(-262,-278) scale(1,1)"><rect fill="#C0C0C0" stroke="none" x="711" y="391" width="96.16455078125" height="75" opacity="0.2"/></g><g transform="translate(-262,-278) scale(1,1)"><rect fill="#ffffff" stroke="none" x="704" y="384" width="96.16455078125" height="75"/></g><g transform="translate(-262,-278) scale(1,1)"><path fill="none" stroke="#000000" d="M 704 384 L 800.16455078125 384 L 800.16455078125 459 L 704 459 L 704 384 Z Z" stroke-miterlimit="10"/></g><g transform="translate(-262,-278) scale(1,1)"><path fill="none" stroke="#000000" d="M 704 407 L 800.16455078125 407" stroke-miterlimit="10"/></g><g transform="translate(-262,-278) scale(1,1)"><path fill="none" stroke="#000000" d="M 714 407 L 714 459" stroke-miterlimit="10"/></g><g transform="translate(-262,-278) scale(1,1)"><path fill="none" stroke="#000000" d="M 791.16455078125 407 L 791.16455078125 459" stroke-miterlimit="10"/></g><g transform="translate(-262,-278) scale(1,1)"><g><path fill="none" stroke="none"/><text fill="#000000" stroke="none" font-family="Arial" font-size="13px" font-style="normal" font-weight="bold" text-decoration="none" x="713.06640625" y="401.5">OrderProduct</text></g></g><g transform="translate(-262,-278) scale(1,1)"><g><path fill="none" stroke="none"/><text fill="#000000" stroke="none" font-family="Arial" font-size="13px" font-style="normal" font-weight="normal" text-decoration="none" x="709" y="425"></text></g></g><g transform="translate(-262,-278) scale(1,1)"><g><path fill="none" stroke="none"/><text fill="#000000" stroke="none" font-family="Arial" font-size="13px" font-style="normal" font-weight="normal" text-decoration="none" x="719" y="425">order_id</text></g></g><g transform="translate(-262,-278) scale(1,1)"><g><path fill="none" stroke="none"/><text fill="#000000" stroke="none" font-family="Arial" font-size="13px" font-style="normal" font-weight="normal" text-decoration="none" x="796.16455078125" y="425"></text></g></g><g transform="translate(-262,-278) scale(1,1)"><g><path fill="none" stroke="none"/><text fill="#000000" stroke="none" font-family="Arial" font-size="13px" font-style="normal" font-weight="normal" text-decoration="none" x="709" y="424.5"></text></g></g><g transform="translate(-262,-278) scale(1,1)"><g><path fill="none" stroke="none"/><text fill="#000000" stroke="none" font-family="Arial" font-size="13px" font-style="normal" font-weight="normal" text-decoration="none" x="709" y="440"></text></g></g><g transform="translate(-262,-278) scale(1,1)"><g><path fill="none" stroke="none"/><text fill="#000000" stroke="none" font-family="Arial" font-size="13px" font-style="normal" font-weight="normal" text-decoration="none" x="719" y="440">product_id</text></g></g><g transform="translate(-262,-278) scale(1,1)"><g><path fill="none" stroke="none"/><text fill="#000000" stroke="none" font-family="Arial" font-size="13px" font-style="normal" font-weight="normal" text-decoration="none" x="796.16455078125" y="440"></text></g></g><g transform="translate(-262,-278) scale(1,1)"><g><path fill="none" stroke="none"/><text fill="#000000" stroke="none" font-family="Arial" font-size="13px" font-style="normal" font-weight="normal" text-decoration="none" x="709" y="439.5"></text></g></g><g transform="translate(-262,-278) scale(1,1)"><g><path fill="none" stroke="none"/><text fill="#000000" stroke="none" font-family="Arial" font-size="13px" font-style="normal" font-weight="normal" text-decoration="none" x="709" y="455"></text></g></g><g transform="translate(-262,-278) scale(1,1)"><g><path fill="none" stroke="none"/><text fill="#000000" stroke="none" font-family="Arial" font-size="13px" font-style="normal" font-weight="normal" text-decoration="none" x="719" y="455">qty</text></g></g><g transform="translate(-262,-278) scale(1,1)"><g><path fill="none" stroke="none"/><text fill="#000000" stroke="none" font-family="Arial" font-size="13px" font-style="normal" font-weight="normal" text-decoration="none" x="796.16455078125" y="455"></text></g></g><g transform="translate(-262,-278) scale(1,1)"><g><path fill="none" stroke="none"/><text fill="#000000" stroke="none" font-family="Arial" font-size="13px" font-style="normal" font-weight="normal" text-decoration="none" x="709" y="454.5"></text></g></g><g transform="translate(-262,-278) scale(1,1)"><path fill="none" stroke="#000000" d="M 597 336 L 744 336 M 744 336 A 8 8 0 0 1 752 344 L 752 384" stroke-miterlimit="10"/></g><g transform="translate(-262,-278) scale(1,1)"><path fill="none" stroke="#000000" d="M 752 370 L 745 384" stroke-miterlimit="10"/></g><g transform="translate(-262,-278) scale(1,1)"><path fill="none" stroke="#000000" d="M 752 370 L 759 384" stroke-miterlimit="10"/></g><g transform="translate(-262,-278) scale(1,1)"><path fill="#FFFFFF" stroke="none" d="M 745 362 C 745 358.1340064 748.1340064 355 752 355 C 755.8659936 355 759 358.1340064 759 362 C 759 365.8659936 755.8659936 369 752 369 C 748.1340064 369 745 365.8659936 745 362 Z"/></g><g transform="translate(-262,-278) scale(1,1)"><path fill="none" stroke="#000000" d="M 745 362 C 745 358.1340064 748.1340064 355 752 355 C 755.8659936 355 759 358.1340064 759 362 C 759 365.8659936 755.8659936 369 752 369 C 748.1340064 369 745 365.8659936 745 362 Z" stroke-miterlimit="10"/></g><g transform="translate(-262,-278) scale(1,1)"><path fill="none" stroke="#000000" d="M 604 329 L 604 343" stroke-miterlimit="10"/></g><g transform="translate(-262,-278) scale(1,1)"><path fill="none" stroke="#000000" d="M 611 329 L 611 343" stroke-miterlimit="10"/></g><g transform="translate(-262,-278) scale(1,1)"><g><path fill="none" stroke="none"/><text fill="#000000" stroke="none" font-family="Arial" font-size="13px" font-style="normal" font-weight="normal" text-decoration="none" x="621.5" y="327.5"></text></g></g><g transform="translate(-262,-278) scale(1,1)"><g><path fill="none" stroke="none"/><text fill="#000000" stroke="none" font-family="Arial" font-size="13px" font-style="normal" font-weight="normal" text-decoration="none" x="766.5" y="364.5"></text></g></g><g transform="translate(-262,-278) scale(1,1)"><path fill="none" stroke="#000000" d="M 636 520 L 744 520 M 744 520 A 8 8 0 0 0 752 512 L 752 459" stroke-miterlimit="10"/></g><g transform="translate(-262,-278) scale(1,1)"><path fill="none" stroke="#000000" d="M 752 473 L 759 459" stroke-miterlimit="10"/></g><g transform="translate(-262,-278) scale(1,1)"><path fill="none" stroke="#000000" d="M 752 473 L 745 459" stroke-miterlimit="10"/></g><g transform="translate(-262,-278) scale(1,1)"><path fill="#FFFFFF" stroke="none" d="M 745 481 C 745 477.1340064 748.1340064 474 752 474 C 755.8659936 474 759 477.1340064 759 481 C 759 484.8659936 755.8659936 488 752 488 C 748.1340064 488 745 484.8659936 745 481 Z"/></g><g transform="translate(-262,-278) scale(1,1)"><path fill="none" stroke="#000000" d="M 745 481 C 745 477.1340064 748.1340064 474 752 474 C 755.8659936 474 759 477.1340064 759 481 C 759 484.8659936 755.8659936 488 752 488 C 748.1340064 488 745 484.8659936 745 481 Z" stroke-miterlimit="10"/></g><g transform="translate(-262,-278) scale(1,1)"><path fill="none" stroke="#000000" d="M 643 513 L 643 527" stroke-miterlimit="10"/></g><g transform="translate(-262,-278) scale(1,1)"><path fill="none" stroke="#000000" d="M 650 513 L 650 527" stroke-miterlimit="10"/></g><g transform="translate(-262,-278) scale(1,1)"><g><path fill="none" stroke="none"/><text fill="#000000" stroke="none" font-family="Arial" font-size="13px" font-style="normal" font-weight="normal" text-decoration="none" x="660.5" y="511.5"></text></g></g><g transform="translate(-262,-278) scale(1,1)"><g><path fill="none" stroke="none"/><text fill="#000000" stroke="none" font-family="Arial" font-size="13px" font-style="normal" font-weight="normal" text-decoration="none" x="736.5" y="490.5"></text></g></g></g></svg>