<svg version="1.1" xmlns="http://www.w3.org/2000/svg" xmlns:xlink="http://www.w3.org/1999/xlink" width="360.61181640625" height="277"><defs/><g><text fill="#eeeeee" stroke="none" font-family="Arial" font-size="24px" font-style="normal" font-weight="normal" text-decoration="none" x="0" y="0">UNREGISTERED</text><text fill="#eeeeee" stroke="none" font-family="Arial" font-size="24px" font-style="normal" font-weight="normal" text-decoration="none" x="0" y="30">UNREGISTERED</text><text fill="#eeeeee" stroke="none" font-family="Arial" font-size="24px" font-style="normal" font-weight="normal" text-decoration="none" x="0" y="60">UNREGISTERED</text><text fill="#eeeeee" stroke="none" font-family="Arial" font-size="24px" font-style="normal" font-weight="normal" text-decoration="none" x="0" y="90">UNREGISTERED</text><text fill="#eeeeee" stroke="none" font-family="Arial" font-size="24px" font-style="normal" font-weight="normal" text-decoration="none" x="0" y="120">UNREGISTERED</text><text fill="#eeeeee" stroke="none" font-family="Arial" font-size="24px" font-style="normal" font-weight="normal" text-decoration="none" x="0" y="150">UNREGISTERED</text><text fill="#eeeeee" stroke="none" font-family="Arial" font-size="24px" font-style="normal" font-weight="normal" text-decoration="none" x="0" y="180">UNREGISTERED</text><text fill="#eeeeee" stroke="none" font-family="Arial" font-size="24px" font-style="normal" font-weight="normal" text-decoration="none" x="0" y="210">UNREGISTERED</text><text fill="#eeeeee" stroke="none" font-family="Arial" font-size="24px" font-style="normal" font-weight="normal" text-decoration="none" x="0" y="240">UNREGISTERED</text><text fill="#eeeeee" stroke="none" font-family="Arial" font-size="24px" font-style="normal" font-weight="normal" text-decoration="none" x="0" y="270">UNREGISTERED</text><text fill="#eeeeee" stroke="none" font-family="Arial" font-size="24px" font-style="normal" font-weight="normal" text-decoration="none" x="200" y="0">UNREGISTERED</text><text fill="#eeeeee" stroke="none" font-family="Arial" font-size="24px" font-style="normal" font-weight="normal" text-decoration="none" x="200" y="30">UNREGISTERED</text><text fill="#eeeeee" stroke="none" font-family="Arial" font-size="24px" font-style="normal" font-weight="normal" text-decoration="none" x="200" y="60">UNREGISTERED</text><text fill="#eeeeee" stroke="none" font-family="Arial" font-size="24px" font-style="normal" font-weight="normal" text-decoration="none" x="200" y="90">UNREGISTERED</text><text fill="#eeeeee" stroke="none" font-family="Arial" font-size="24px" font-style="normal" font-weight="normal" text-decoration="none" x="200" y="120">UNREGISTERED</text><text fill="#eeeeee" stroke="none" font-family="Arial" font-size="24px" font-style="normal" font-weight="normal" text-decoration="none" x="200" y="150">UNREGISTERED</text><text fill="#eeeeee" stroke="none" font-family="Arial" font-size="24px" font-style="normal" font-weight="normal" text-decoration="none" x="200" y="180">UNREGISTERED</text><text fill="#eeeeee" stroke="none" font-family="Arial" font-size="24px" font-style="normal" font-weight="normal" text-decoration="none" x="200" y="210">UNREGISTERED</text><text fill="#eeeeee" stroke="none" font-family="Arial" font-size="24px" font-style="normal" font-weight="normal" text-decoration="none" x="200" y="240">UNREGISTERED</text><text fill="#eeeeee" stroke="none" font-family="Arial" font-size="24px" font-style="normal" font-weight="normal" text-decoration="none" x="200" y="270">UNREGISTERED</text><g transform="translate(-246,-278) scale(1,1)"><rect fill="#C0C0C0" stroke="none" x="263" y="295" width="142.39453125" height="80" opacity="0.2"/></g><g transform="translate(-246,-278) scale(1,1)"><rect fill="#ffffff" stroke="none" x="256" y="288" width="142.39453125" height="80"/></g><g transform="translate(-246,-278) scale(1,1)"><path fill="none" stroke="#000000" d="M 256 288 L 398.39453125 288 L 398.39453125 368 L 256 368 L 256 288 Z Z" stroke-miterlimit="10"/></g><g transform="translate(-246,-278) scale(1,1)"><path fill="none" stroke="#000000" d="M 256 311 L 398.39453125 311" stroke-miterlimit="10"/></g><g transform="translate(-246,-278) scale(1,1)"><path fill="none" stroke="#000000" d="M 266 311 L 266 368" stroke-miterlimit="10"/></g><g transform="translate(-246,-278) scale(1,1)"><path fill="none" stroke="#000000" d="M 336.68359375 311 L 336.68359375 368" stroke-miterlimit="10"/></g><g transform="translate(-246,-278) scale(1,1)"><g><path fill="none" stroke="none"/><text fill="#000000" stroke="none" font-family="Arial" font-size="13px" font-style="normal" font-weight="bold" text-decoration="none" x="313.4736328125" y="305.5">User</text></g></g><g transform="translate(-246,-278) scale(1,1)"><g><path fill="none" stroke="none"/><text fill="#000000" stroke="none" font-family="Arial" font-size="13px" font-style="normal" font-weight="normal" text-decoration="none" x="261" y="329"></text></g></g><g transform="translate(-246,-278) scale(1,1)"><g><path fill="none" stroke="none"/><text fill="#000000" stroke="none" font-family="Arial" font-size="13px" font-style="normal" font-weight="normal" text-decoration="none" x="271" y="329">id</text></g></g><g transform="translate(-246,-278) scale(1,1)"><g><path fill="none" stroke="none"/><text fill="#000000" stroke="none" font-family="Arial" font-size="13px" font-style="normal" font-weight="normal" text-decoration="none" x="341.68359375" y="329"></text></g></g><g transform="translate(-246,-278) scale(1,1)"><g><path fill="none" stroke="none"/><text fill="#000000" stroke="none" font-family="Arial" font-size="13px" font-style="normal" font-weight="normal" text-decoration="none" x="261" y="328.5"></text></g></g><g transform="translate(-246,-278) scale(1,1)"><g><path fill="none" stroke="none"/><text fill="#000000" stroke="none" font-family="Arial" font-size="13px" font-style="normal" font-weight="normal" text-decoration="none" x="261" y="344"></text></g></g><g transform="translate(-246,-278) scale(1,1)"><g><path fill="none" stroke="none"/><text fill="#000000" stroke="none" font-family="Arial" font-size="13px" font-style="normal" font-weight="normal" text-decoration="none" x="271" y="344">login</text></g></g><g transform="translate(-246,-278) scale(1,1)"><g><path fill="none" stroke="none"/><text fill="#000000" stroke="none" font-family="Arial" font-size="13px" font-style="normal" font-weight="normal" text-decoration="none" x="341.68359375" y="344"></text></g></g><g transform="translate(-246,-278) scale(1,1)"><g><path fill="none" stroke="none"/><text fill="#000000" stroke="none" font-family="Arial" font-size="13px" font-style="normal" font-weight="normal" text-decoration="none" x="261" y="343.5"></text></g></g><g transform="translate(-246,-278) scale(1,1)"><g><path fill="none" stroke="none"/><text fill="#000000" stroke="none" font-family="Arial" font-size="13px" font-style="normal" font-weight="normal" text-decoration="none" x="261" y="359"></text></g></g><g transform="translate(-246,-278) scale(1,1)"><g><path fill="none" stroke="none"/><text fill="#000000" stroke="none" font-family="Arial" font-size="13px" font-style="normal" font-weight="normal" text-decoration="none" x="271" y="359">password</text></g></g><g transform="translate(-246,-278) scale(1,1)"><g><path fill="none" stroke="none"/><text fill="#000000" stroke="none" font-family="Arial" font-size="13px" font-style="normal" font-weight="normal" text-decoration="none" x="341.68359375" y="359"></text></g></g><g transform="translate(-246,-278) scale(1,1)"><g><path fill="none" stroke="none"/><text fill="#000000" stroke="none" font-family="Arial" font-size="13px" font-style="normal" font-weight="normal" text-decoration="none" x="261" y="358.5"></text></g></g><g transform="translate(-246,-278) scale(1,1)"><rect fill="#C0C0C0" stroke="none" x="519" y="295" width="84.61181640625" height="105" opacity="0.2"/></g><g transform="translate(-246,-278) scale(1,1)"><rect fill="#ffffff" stroke="none" x="512" y="288" width="84.61181640625" height="105"/></g><g transform="translate(-246,-278) scale(1,1)"><path fill="none" stroke="#000000" d="M 512 288 L 596.61181640625 288 L 596.61181640625 393 L 512 393 L 512 288 Z Z" stroke-miterlimit="10"/></g><g transform="translate(-246,-278) scale(1,1)"><path fill="none" stroke="#000000" d="M 512 311 L 596.61181640625 311" stroke-miterlimit="10"/></g><g transform="translate(-246,-278) scale(1,1)"><path fill="none" stroke="#000000" d="M 522 311 L 522 393" stroke-miterlimit="10"/></g><g transform="translate(-246,-278) scale(1,1)"><path fill="none" stroke="#000000" d="M 578.24267578125 311 L 578.24267578125 393" stroke-miterlimit="10"/></g><g transform="translate(-246,-278) scale(1,1)"><g><path fill="none" stroke="none"/><text fill="#000000" stroke="none" font-family="Arial" font-size="13px" font-style="normal" font-weight="bold" text-decoration="none" x="526.845947265625" y="305.5">Purchase</text></g></g><g transform="translate(-246,-278) scale(1,1)"><g><path fill="none" stroke="none"/><text fill="#000000" stroke="none" font-family="Arial" font-size="13px" font-style="normal" font-weight="normal" text-decoration="none" x="517" y="329"></text></g></g><g transform="translate(-246,-278) scale(1,1)"><g><path fill="none" stroke="none"/><text fill="#000000" stroke="none" font-family="Arial" font-size="13px" font-style="normal" font-weight="normal" text-decoration="none" x="527" y="329">id</text></g></g><g transform="translate(-246,-278) scale(1,1)"><g><path fill="none" stroke="none"/><text fill="#000000" stroke="none" font-family="Arial" font-size="13px" font-style="normal" font-weight="normal" text-decoration="none" x="583.24267578125" y="329"></text></g></g><g transform="translate(-246,-278) scale(1,1)"><g><path fill="none" stroke="none"/><text fill="#000000" stroke="none" font-family="Arial" font-size="13px" font-style="normal" font-weight="normal" text-decoration="none" x="517" y="328.5"></text></g></g><g transform="translate(-246,-278) scale(1,1)"><g><path fill="none" stroke="none"/><text fill="#000000" stroke="none" font-family="Arial" font-size="13px" font-style="normal" font-weight="normal" text-decoration="none" x="517" y="344"></text></g></g><g transform="translate(-246,-278) scale(1,1)"><g><path fill="none" stroke="none"/><text fill="#000000" stroke="none" font-family="Arial" font-size="13px" font-style="normal" font-weight="normal" text-decoration="none" x="527" y="344">user_id</text></g></g><g transform="translate(-246,-278) scale(1,1)"><g><path fill="none" stroke="none"/><text fill="#000000" stroke="none" font-family="Arial" font-size="13px" font-style="normal" font-weight="normal" text-decoration="none" x="583.24267578125" y="344"></text></g></g><g transform="translate(-246,-278) scale(1,1)"><g><path fill="none" stroke="none"/><text fill="#000000" stroke="none" font-family="Arial" font-size="13px" font-style="normal" font-weight="normal" text-decoration="none" x="517" y="343.5"></text></g></g><g transform="translate(-246,-278) scale(1,1)"><g><path fill="none" stroke="none"/><text fill="#000000" stroke="none" font-family="Arial" font-size="13px" font-style="normal" font-weight="normal" text-decoration="none" x="517" y="359"></text></g></g><g transform="translate(-246,-278) scale(1,1)"><g><path fill="none" stroke="none"/><text fill="#000000" stroke="none" font-family="Arial" font-size="13px" font-style="normal" font-weight="normal" text-decoration="none" x="527" y="359">text</text></g></g><g transform="translate(-246,-278) scale(1,1)"><g><path fill="none" stroke="none"/><text fill="#000000" stroke="none" font-family="Arial" font-size="13px" font-style="normal" font-weight="normal" text-decoration="none" x="583.24267578125" y="359"></text></g></g><g transform="translate(-246,-278) scale(1,1)"><g><path fill="none" stroke="none"/><text fill="#000000" stroke="none" font-family="Arial" font-size="13px" font-style="normal" font-weight="normal" text-decoration="none" x="517" y="358.5"></text></g></g><g transform="translate(-246,-278) scale(1,1)"><g><path fill="none" stroke="none"/><text fill="#000000" stroke="none" font-family="Arial" font-size="13px" font-style="normal" font-weight="normal" text-decoration="none" x="517" y="374"></text></g></g><g transform="translate(-246,-278) scale(1,1)"><g><path fill="none" stroke="none"/><text fill="#000000" stroke="none" font-family="Arial" font-size="13px" font-style="normal" font-weight="normal" text-decoration="none" x="527" y="374">price</text></g></g><g transform="translate(-246,-278) scale(1,1)"><g><path fill="none" stroke="none"/><text fill="#000000" stroke="none" font-family="Arial" font-size="13px" font-style="normal" font-weight="normal" text-decoration="none" x="583.24267578125" y="374"></text></g></g><g transform="translate(-246,-278) scale(1,1)"><g><path fill="none" stroke="none"/><text fill="#000000" stroke="none" font-family="Arial" font-size="13px" font-style="normal" font-weight="normal" text-decoration="none" x="517" y="373.5"></text></g></g><g transform="translate(-246,-278) scale(1,1)"><g><path fill="none" stroke="none"/><text fill="#000000" stroke="none" font-family="Arial" font-size="13px" font-style="normal" font-weight="normal" text-decoration="none" x="517" y="389"></text></g></g><g transform="translate(-246,-278) scale(1,1)"><g><path fill="none" stroke="none"/><text fill="#000000" stroke="none" font-family="Arial" font-size="13px" font-style="normal" font-weight="normal" text-decoration="none" x="527" y="389">date</text></g></g><g transform="translate(-246,-278) scale(1,1)"><g><path fill="none" stroke="none"/><text fill="#000000" stroke="none" font-family="Arial" font-size="13px" font-style="normal" font-weight="normal" text-decoration="none" x="583.24267578125" y="389"></text></g></g><g transform="translate(-246,-278) scale(1,1)"><g><path fill="none" stroke="none"/><text fill="#000000" stroke="none" font-family="Arial" font-size="13px" font-style="normal" font-weight="normal" text-decoration="none" x="517" y="388.5"></text></g></g><g transform="translate(-246,-278) scale(1,1)"><rect fill="#C0C0C0" stroke="none" x="407" y="447" width="99.0654296875" height="105" opacity="0.2"/></g><g transform="translate(-246,-278) scale(1,1)"><rect fill="#ffffff" stroke="none" x="400" y="440" width="99.0654296875" height="105"/></g><g transform="translate(-246,-278) scale(1,1)"><path fill="none" stroke="#000000" d="M 400 440 L 499.0654296875 440 L 499.0654296875 545 L 400 545 L 400 440 Z Z" stroke-miterlimit="10"/></g><g transform="translate(-246,-278) scale(1,1)"><path fill="none" stroke="#000000" d="M 400 463 L 499.0654296875 463" stroke-miterlimit="10"/></g><g transform="translate(-246,-278) scale(1,1)"><path fill="none" stroke="#000000" d="M 410 463 L 410 545" stroke-miterlimit="10"/></g><g transform="translate(-246,-278) scale(1,1)"><path fill="none" stroke="#000000" d="M 490.0654296875 463 L 490.0654296875 545" stroke-miterlimit="10"/></g><g transform="translate(-246,-278) scale(1,1)"><g><path fill="none" stroke="none"/><text fill="#000000" stroke="none" font-family="Arial" font-size="13px" font-style="normal" font-weight="bold" text-decoration="none" x="427.1318359375" y="457.5">Product</text></g></g><g transform="translate(-246,-278) scale(1,1)"><g><path fill="none" stroke="none"/><text fill="#000000" stroke="none" font-family="Arial" font-size="13px" font-style="normal" font-weight="normal" text-decoration="none" x="405" y="481"></text></g></g><g transform="translate(-246,-278) scale(1,1)"><g><path fill="none" stroke="none"/><text fill="#000000" stroke="none" font-family="Arial" font-size="13px" font-style="normal" font-weight="normal" text-decoration="none" x="415" y="481">id</text></g></g><g transform="translate(-246,-278) scale(1,1)"><g><path fill="none" stroke="none"/><text fill="#000000" stroke="none" font-family="Arial" font-size="13px" font-style="normal" font-weight="normal" text-decoration="none" x="495.0654296875" y="481"></text></g></g><g transform="translate(-246,-278) scale(1,1)"><g><path fill="none" stroke="none"/><text fill="#000000" stroke="none" font-family="Arial" font-size="13px" font-style="normal" font-weight="normal" text-decoration="none" x="405" y="480.5"></text></g></g><g transform="translate(-246,-278) scale(1,1)"><g><path fill="none" stroke="none"/><text fill="#000000" stroke="none" font-family="Arial" font-size="13px" font-style="normal" font-weight="normal" text-decoration="none" x="405" y="496"></text></g></g><g transform="translate(-246,-278) scale(1,1)"><g><path fill="none" stroke="none"/><text fill="#000000" stroke="none" font-family="Arial" font-size="13px" font-style="normal" font-weight="normal" text-decoration="none" x="415" y="496">symbol</text></g></g><g transform="translate(-246,-278) scale(1,1)"><g><path fill="none" stroke="none"/><text fill="#000000" stroke="none" font-family="Arial" font-size="13px" font-style="normal" font-weight="normal" text-decoration="none" x="495.0654296875" y="496"></text></g></g><g transform="translate(-246,-278) scale(1,1)"><g><path fill="none" stroke="none"/><text fill="#000000" stroke="none" font-family="Arial" font-size="13px" font-style="normal" font-weight="normal" text-decoration="none" x="405" y="495.5"></text></g></g><g transform="translate(-246,-278) scale(1,1)"><g><path fill="none" stroke="none"/><text fill="#000000" stroke="none" font-family="Arial" font-size="13px" font-style="normal" font-weight="normal" text-decoration="none" x="405" y="511"></text></g></g><g transform="translate(-246,-278) scale(1,1)"><g><path fill="none" stroke="none"/><text fill="#000000" stroke="none" font-family="Arial" font-size="13px" font-style="normal" font-weight="normal" text-decoration="none" x="415" y="511">price</text></g></g><g transform="translate(-246,-278) scale(1,1)"><g><path fill="none" stroke="none"/><text fill="#000000" stroke="none" font-family="Arial" font-size="13px" font-style="normal" font-weight="normal" text-decoration="none" x="495.0654296875" y="511"></text></g></g><g transform="translate(-246,-278) scale(1,1)"><g><path fill="none" stroke="none"/><text fill="#000000" stroke="none" font-family="Arial" font-size="13px" font-style="normal" font-weight="normal" text-decoration="none" x="405" y="510.5"></text></g></g><g transform="translate(-246,-278) scale(1,1)"><g><path fill="none" stroke="none"/><text fill="#000000" stroke="none" font-family="Arial" font-size="13px" font-style="normal" font-weight="normal" text-decoration="none" x="405" y="526"></text></g></g><g transform="translate(-246,-278) scale(1,1)"><g><path fill="none" stroke="none"/><text fill="#000000" stroke="none" font-family="Arial" font-size="13px" font-style="normal" font-weight="normal" text-decoration="none" x="415" y="526">sale</text></g></g><g transform="translate(-246,-278) scale(1,1)"><g><path fill="none" stroke="none"/><text fill="#000000" stroke="none" font-family="Arial" font-size="13px" font-style="normal" font-weight="normal" text-decoration="none" x="495.0654296875" y="526"></text></g></g><g transform="translate(-246,-278) scale(1,1)"><g><path fill="none" stroke="none"/><text fill="#000000" stroke="none" font-family="Arial" font-size="13px" font-style="normal" font-weight="normal" text-decoration="none" x="405" y="525.5"></text></g></g><g transform="translate(-246,-278) scale(1,1)"><g><path fill="none" stroke="none"/><text fill="#000000" stroke="none" font-family="Arial" font-size="13px" font-style="normal" font-weight="normal" text-decoration="none" x="405" y="541"></text></g></g><g transform="translate(-246,-278) scale(1,1)"><g><path fill="none" stroke="none"/><text fill="#000000" stroke="none" font-family="Arial" font-size="13px" font-style="normal" font-weight="normal" text-decoration="none" x="415" y="541">description</text></g></g><g transform="translate(-246,-278) scale(1,1)"><g><path fill="none" stroke="none"/><text fill="#000000" stroke="none" font-family="Arial" font-size="13px" font-style="normal" font-weight="normal" text-decoration="none" x="495.0654296875" y="541"></text></g></g><g transform="translate(-246,-278) scale(1,1)"><g><path fill="none" stroke="none"/><text fill="#000000" stroke="none" font-family="Arial" font-size="13px" font-style="normal" font-weight="normal" text-decoration="none" x="405" y="540.5"></text></g></g><g transform="translate(-246,-278) scale(1,1)"><path fill="none" stroke="#000000" d="M 398 332 L 512 332" stroke-miterlimit="10"/></g><g transform="translate(-246,-278) scale(1,1)"><path fill="none" stroke="#000000" d="M 498 332 L 512 339" stroke-miterlimit="10"/></g><g transform="translate(-246,-278) scale(1,1)"><path fill="none" stroke="#000000" d="M 498 332 L 512 325" stroke-miterlimit="10"/></g><g transform="translate(-246,-278) scale(1,1)"><path fill="#FFFFFF" stroke="none" d="M 483 332 C 483 328.1340064 486.1340064 325 490 325 C 493.8659936 325 497 328.1340064 497 332 C 497 335.8659936 493.8659936 339 490 339 C 486.1340064 339 483 335.8659936 483 332 Z"/></g><g transform="translate(-246,-278) scale(1,1)"><path fill="none" stroke="#000000" d="M 483 332 C 483 328.1340064 486.1340064 325 490 325 C 493.8659936 325 497 328.1340064 497 332 C 497 335.8659936 493.8659936 339 490 339 C 486.1340064 339 483 335.8659936 483 332 Z" stroke-miterlimit="10"/></g><g transform="translate(-246,-278) scale(1,1)"><path fill="none" stroke="#000000" d="M 405 325 L 405 339" stroke-miterlimit="10"/></g><g transform="translate(-246,-278) scale(1,1)"><path fill="none" stroke="#000000" d="M 412 325 L 412 339" stroke-miterlimit="10"/></g><g transform="translate(-246,-278) scale(1,1)"><g><path fill="none" stroke="none"/><text fill="#000000" stroke="none" font-family="Arial" font-size="13px" font-style="normal" font-weight="normal" text-decoration="none" x="422.5" y="323.5"></text></g></g><g transform="translate(-246,-278) scale(1,1)"><g><path fill="none" stroke="none"/><text fill="#000000" stroke="none" font-family="Arial" font-size="13px" font-style="normal" font-weight="normal" text-decoration="none" x="485.5" y="323.5"></text></g></g></g></svg>