<svg version="1.1" xmlns="http://www.w3.org/2000/svg" xmlns:xlink="http://www.w3.org/1999/xlink" width="625" height="502"><defs/><g><g transform="translate(-206,-134) scale(1,1)"><path fill="#ffffff" stroke="none" d="M 232.40935031960228 305.68 C 232.40935031960228 300.886167936 236.29519264454774 297 241.088623046875 297 C 245.88205344920226 297 249.76789577414772 300.886167936 249.76789577414772 305.68 C 249.76789577414772 310.473832064 245.88205344920226 314.36 241.088623046875 314.36 C 236.29519264454774 314.36 232.40935031960228 310.473832064 232.40935031960228 305.68 Z"/></g><g transform="translate(-206,-134) scale(1,1)"><path fill="none" stroke="#000000" d="M 232.40935031960228 305.68 C 232.40935031960228 300.886167936 236.29519264454774 297 241.088623046875 297 C 245.88205344920226 297 249.76789577414772 300.886167936 249.76789577414772 305.68 C 249.76789577414772 310.473832064 245.88205344920226 314.36 241.088623046875 314.36 C 236.29519264454774 314.36 232.40935031960228 310.473832064 232.40935031960228 305.68 Z" stroke-miterlimit="10"/></g><g transform="translate(-206,-134) scale(1,1)"><path fill="none" stroke="#000000" d="M 241.088623046875 314.36 L 241.088623046875 331.64" stroke-miterlimit="10"/></g><g transform="translate(-206,-134) scale(1,1)"><path fill="none" stroke="#000000" d="M 231.89880486505683 320.84 L 250.27844122869317 320.84" stroke-miterlimit="10"/></g><g transform="translate(-206,-134) scale(1,1)"><path fill="none" stroke="#000000" d="M 241.088623046875 331.64 L 228.32498668323865 349" stroke-miterlimit="10"/></g><g transform="translate(-206,-134) scale(1,1)"><path fill="none" stroke="#000000" d="M 241.088623046875 331.64 L 253.85225941051135 349" stroke-miterlimit="10"/></g><g transform="translate(-206,-134) scale(1,1)"><g><path fill="none" stroke="none"/><text fill="#000000" stroke="none" font-family="Arial" font-size="13px" font-style="normal" font-weight="bold" text-decoration="none" x="227.364990234375" y="369.5">User</text></g></g><g transform="translate(-206,-134) scale(1,1)"><path fill="#C0C0C0" stroke="none" d="M 295 168 C 295 158.6111584 329.9217856 151 373 151 C 416.0782144 151 451 158.6111584 451 168 C 451 177.3888416 416.0782144 185 373 185 C 329.9217856 185 295 177.3888416 295 168 Z" opacity="0.2"/></g><g transform="translate(-206,-134) scale(1,1)"><path fill="#ffffff" stroke="none" d="M 288 161 C 288 151.6111584 322.9217856 144 366 144 C 409.0782144 144 444 151.6111584 444 161 C 444 170.3888416 409.0782144 178 366 178 C 322.9217856 178 288 170.3888416 288 161 Z"/></g><g transform="translate(-206,-134) scale(1,1)"><path fill="none" stroke="#000000" d="M 288 161 C 288 151.6111584 322.9217856 144 366 144 C 409.0782144 144 444 151.6111584 444 161 C 444 170.3888416 409.0782144 178 366 178 C 322.9217856 178 288 170.3888416 288 161 Z" stroke-miterlimit="10"/></g><g transform="translate(-206,-134) scale(1,1)"><g><path fill="none" stroke="none"/><text fill="#000000" stroke="none" font-family="Arial" font-size="13px" font-style="normal" font-weight="bold" text-decoration="none" x="317.697509765625" y="168">View home page</text></g></g><g transform="translate(-206,-134) scale(1,1)"><path fill="#C0C0C0" stroke="none" d="M 391 248 C 391 238.6111584 425.0263552 231 467 231 C 508.9736448 231 543 238.6111584 543 248 C 543 257.3888416 508.9736448 265 467 265 C 425.0263552 265 391 257.3888416 391 248 Z" opacity="0.2"/></g><g transform="translate(-206,-134) scale(1,1)"><path fill="#ffffff" stroke="none" d="M 384 241 C 384 231.6111584 418.0263552 224 460 224 C 501.9736448 224 536 231.6111584 536 241 C 536 250.3888416 501.9736448 258 460 258 C 418.0263552 258 384 250.3888416 384 241 Z"/></g><g transform="translate(-206,-134) scale(1,1)"><path fill="none" stroke="#000000" d="M 384 241 C 384 231.6111584 418.0263552 224 460 224 C 501.9736448 224 536 231.6111584 536 241 C 536 250.3888416 501.9736448 258 460 258 C 418.0263552 258 384 250.3888416 384 241 Z" stroke-miterlimit="10"/></g><g transform="translate(-206,-134) scale(1,1)"><g><path fill="none" stroke="none"/><text fill="#000000" stroke="none" font-family="Arial" font-size="13px" font-style="normal" font-weight="bold" text-decoration="none" x="413.506591796875" y="248">View store page</text></g></g><g transform="translate(-206,-134) scale(1,1)"><path fill="#C0C0C0" stroke="none" d="M 359 432 C 359 422.6111584 399.5182256 415 449.5 415 C 499.4817744 415 540 422.6111584 540 432 C 540 441.3888416 499.4817744 449 449.5 449 C 399.5182256 449 359 441.3888416 359 432 Z" opacity="0.2"/></g><g transform="translate(-206,-134) scale(1,1)"><path fill="#ffffff" stroke="none" d="M 352 425 C 352 415.6111584 392.5182256 408 442.5 408 C 492.4817744 408 533 415.6111584 533 425 C 533 434.3888416 492.4817744 442 442.5 442 C 392.5182256 442 352 434.3888416 352 425 Z"/></g><g transform="translate(-206,-134) scale(1,1)"><path fill="none" stroke="#000000" d="M 352 425 C 352 415.6111584 392.5182256 408 442.5 408 C 492.4817744 408 533 415.6111584 533 425 C 533 434.3888416 492.4817744 442 442.5 442 C 392.5182256 442 352 434.3888416 352 425 Z" stroke-miterlimit="10"/></g><g transform="translate(-206,-134) scale(1,1)"><g><path fill="none" stroke="none"/><text fill="#000000" stroke="none" font-family="Arial" font-size="13px" font-style="normal" font-weight="bold" text-decoration="none" x="387.697509765625" y="432">View shopping cart</text></g></g><g transform="translate(-206,-134) scale(1,1)"><path fill="#C0C0C0" stroke="none" d="M 639 344 C 639 334.6111584 679.0705104 327 728.5 327 C 777.9294896 327 818 334.6111584 818 344 C 818 353.3888416 777.9294896 361 728.5 361 C 679.0705104 361 639 353.3888416 639 344 Z" opacity="0.2"/></g><g transform="translate(-206,-134) scale(1,1)"><path fill="#ffffff" stroke="none" d="M 632 337 C 632 327.6111584 672.0705104 320 721.5 320 C 770.9294896 320 811 327.6111584 811 337 C 811 346.3888416 770.9294896 354 721.5 354 C 672.0705104 354 632 346.3888416 632 337 Z"/></g><g transform="translate(-206,-134) scale(1,1)"><path fill="none" stroke="#000000" d="M 632 337 C 632 327.6111584 672.0705104 320 721.5 320 C 770.9294896 320 811 327.6111584 811 337 C 811 346.3888416 770.9294896 354 721.5 354 C 672.0705104 354 632 346.3888416 632 337 Z" stroke-miterlimit="10"/></g><g transform="translate(-206,-134) scale(1,1)"><g><path fill="none" stroke="none"/><text fill="#000000" stroke="none" font-family="Arial" font-size="13px" font-style="normal" font-weight="bold" text-decoration="none" x="667.671875" y="344">Add symbol to cart</text></g></g><g transform="translate(-206,-134) scale(1,1)"><path fill="none" stroke="#000000" d="M 267 324 L 418 259" stroke-miterlimit="10"/></g><g transform="translate(-206,-134) scale(1,1)"><path fill="none" stroke="#000000" d="M 267 299 L 353 179" stroke-miterlimit="10"/></g><g transform="translate(-206,-134) scale(1,1)"><path fill="none" stroke="#000000" d="M 267 347 L 402 407" stroke-miterlimit="10"/></g><g transform="translate(-206,-134) scale(1,1)"><path fill="none" stroke="#000000" d="M 631 337 L 559 337" stroke-miterlimit="10" stroke-dasharray="3"/></g><g transform="translate(-206,-134) scale(1,1)"><path fill="none" stroke="#000000" d="M 569.1626748576241 332.790482243984 L 559 337 L 569.1626748576241 341.209517756016" stroke-miterlimit="10"/></g><g transform="translate(-206,-134) scale(1,1)"><g><path fill="none" stroke="none"/><text fill="#000000" stroke="none" font-family="Arial" font-size="13px" font-style="normal" font-weight="normal" text-decoration="none" x="574.5" y="355.5">«extend»</text></g></g><g transform="translate(-206,-134) scale(1,1)"><path fill="#C0C0C0" stroke="none" d="M 527 504 C 527 494.6111584 586.7699792 487 660.5 487 C 734.2300208 487 794 494.6111584 794 504 C 794 513.3888416 734.2300208 521 660.5 521 C 586.7699792 521 527 513.3888416 527 504 Z" opacity="0.2"/></g><g transform="translate(-206,-134) scale(1,1)"><path fill="#ffffff" stroke="none" d="M 520 497 C 520 487.6111584 579.7699792 480 653.5 480 C 727.2300208 480 787 487.6111584 787 497 C 787 506.3888416 727.2300208 514 653.5 514 C 579.7699792 514 520 506.3888416 520 497 Z"/></g><g transform="translate(-206,-134) scale(1,1)"><path fill="none" stroke="#000000" d="M 520 497 C 520 487.6111584 579.7699792 480 653.5 480 C 727.2300208 480 787 487.6111584 787 497 C 787 506.3888416 727.2300208 514 653.5 514 C 579.7699792 514 520 506.3888416 520 497 Z" stroke-miterlimit="10"/></g><g transform="translate(-206,-134) scale(1,1)"><g><path fill="none" stroke="none"/><text fill="#000000" stroke="none" font-family="Arial" font-size="13px" font-style="normal" font-weight="bold" text-decoration="none" x="570.037841796875" y="504">Change the order of symbols</text></g></g><g transform="translate(-206,-134) scale(1,1)"><path fill="#C0C0C0" stroke="none" d="M 639 432 C 639 422.6111584 681.3090864 415 733.5 415 C 785.6909136 415 828 422.6111584 828 432 C 828 441.3888416 785.6909136 449 733.5 449 C 681.3090864 449 639 441.3888416 639 432 Z" opacity="0.2"/></g><g transform="translate(-206,-134) scale(1,1)"><path fill="#ffffff" stroke="none" d="M 632 425 C 632 415.6111584 674.3090864 408 726.5 408 C 778.6909136 408 821 415.6111584 821 425 C 821 434.3888416 778.6909136 442 726.5 442 C 674.3090864 442 632 434.3888416 632 425 Z"/></g><g transform="translate(-206,-134) scale(1,1)"><path fill="none" stroke="#000000" d="M 632 425 C 632 415.6111584 674.3090864 408 726.5 408 C 778.6909136 408 821 415.6111584 821 425 C 821 434.3888416 778.6909136 442 726.5 442 C 674.3090864 442 632 434.3888416 632 425 Z" stroke-miterlimit="10"/></g><g transform="translate(-206,-134) scale(1,1)"><g><path fill="none" stroke="none"/><text fill="#000000" stroke="none" font-family="Arial" font-size="13px" font-style="normal" font-weight="bold" text-decoration="none" x="668.3173828125" y="432">Change the quantity</text></g></g><g transform="translate(-206,-134) scale(1,1)"><path fill="none" stroke="#000000" d="M 725 407 L 722 355" stroke-miterlimit="10" stroke-dasharray="3"/></g><g transform="translate(-206,-134) scale(1,1)"><path fill="none" stroke="#000000" d="M 726.7878645701367 364.90335058745427 L 722 355 L 718.3828051480898 365.3882578618031" stroke-miterlimit="10"/></g><g transform="translate(-206,-134) scale(1,1)"><g><path fill="none" stroke="none"/><text fill="#000000" stroke="none" font-family="Arial" font-size="13px" font-style="normal" font-weight="normal" text-decoration="none" x="666.5" y="388.5">«extend»</text></g></g><g transform="translate(-206,-134) scale(1,1)"><path fill="none" stroke="#000000" d="M 631 425 L 534 425" stroke-miterlimit="10" stroke-dasharray="3"/></g><g transform="translate(-206,-134) scale(1,1)"><path fill="none" stroke="#000000" d="M 544.1626748576241 420.790482243984 L 534 425 L 544.1626748576241 429.209517756016" stroke-miterlimit="10"/></g><g transform="translate(-206,-134) scale(1,1)"><g><path fill="none" stroke="none"/><text fill="#000000" stroke="none" font-family="Arial" font-size="13px" font-style="normal" font-weight="normal" text-decoration="none" x="563.5" y="443.5">«extend»</text></g></g><g transform="translate(-206,-134) scale(1,1)"><path fill="none" stroke="#000000" d="M 600 479 L 495 443" stroke-miterlimit="10" stroke-dasharray="3"/></g><g transform="translate(-206,-134) scale(1,1)"><path fill="none" stroke="#000000" d="M 505.9785900834875 442.3140264008359 L 495 443 L 503.2480920795852 450.2779789122176" stroke-miterlimit="10"/></g><g transform="translate(-206,-134) scale(1,1)"><g><path fill="none" stroke="none"/><text fill="#000000" stroke="none" font-family="Arial" font-size="13px" font-style="normal" font-weight="normal" text-decoration="none" x="499.5" y="476.5">«extend»</text></g></g><g transform="translate(-206,-134) scale(1,1)"><path fill="#C0C0C0" stroke="none" d="M 367 536 C 367 526.6111584 389.6096176 519 417.5 519 C 445.3903824 519 468 526.6111584 468 536 C 468 545.3888416 445.3903824 553 417.5 553 C 389.6096176 553 367 545.3888416 367 536 Z" opacity="0.2"/></g><g transform="translate(-206,-134) scale(1,1)"><path fill="#ffffff" stroke="none" d="M 360 529 C 360 519.6111584 382.6096176 512 410.5 512 C 438.3903824 512 461 519.6111584 461 529 C 461 538.3888416 438.3903824 546 410.5 546 C 382.6096176 546 360 538.3888416 360 529 Z"/></g><g transform="translate(-206,-134) scale(1,1)"><path fill="none" stroke="#000000" d="M 360 529 C 360 519.6111584 382.6096176 512 410.5 512 C 438.3903824 512 461 519.6111584 461 529 C 461 538.3888416 438.3903824 546 410.5 546 C 382.6096176 546 360 538.3888416 360 529 Z" stroke-miterlimit="10"/></g><g transform="translate(-206,-134) scale(1,1)"><g><path fill="none" stroke="none"/><text fill="#000000" stroke="none" font-family="Arial" font-size="13px" font-style="normal" font-weight="bold" text-decoration="none" x="387.016845703125" y="536">Buy text</text></g></g><g transform="translate(-206,-134) scale(1,1)"><path fill="none" stroke="#000000" d="M 416 511 L 436 443" stroke-miterlimit="10" stroke-dasharray="3"/></g><g transform="translate(-206,-134) scale(1,1)"><path fill="none" stroke="#000000" d="M 437.1709015068763 453.9375038130825 L 436 443 L 429.0939692801294 451.56193551109817" stroke-miterlimit="10"/></g><g transform="translate(-206,-134) scale(1,1)"><g><path fill="none" stroke="none"/><text fill="#000000" stroke="none" font-family="Arial" font-size="13px" font-style="normal" font-weight="normal" text-decoration="none" x="367.5" y="484.5">«extend»</text></g></g><g transform="translate(-206,-134) scale(1,1)"><path fill="#C0C0C0" stroke="none" d="M 423 616 C 423 606.6111584 499.33544159999997 599 593.5 599 C 687.6645584 599 764 606.6111584 764 616 C 764 625.3888416 687.6645584 633 593.5 633 C 499.33544159999997 633 423 625.3888416 423 616 Z" opacity="0.2"/></g><g transform="translate(-206,-134) scale(1,1)"><path fill="#ffffff" stroke="none" d="M 416 609 C 416 599.6111584 492.33544159999997 592 586.5 592 C 680.6645584 592 757 599.6111584 757 609 C 757 618.3888416 680.6645584 626 586.5 626 C 492.33544159999997 626 416 618.3888416 416 609 Z"/></g><g transform="translate(-206,-134) scale(1,1)"><path fill="none" stroke="#000000" d="M 416 609 C 416 599.6111584 492.33544159999997 592 586.5 592 C 680.6645584 592 757 599.6111584 757 609 C 757 618.3888416 680.6645584 626 586.5 626 C 492.33544159999997 626 416 618.3888416 416 609 Z" stroke-miterlimit="10"/></g><g transform="translate(-206,-134) scale(1,1)"><g><path fill="none" stroke="none"/><text fill="#000000" stroke="none" font-family="Arial" font-size="13px" font-style="normal" font-weight="bold" text-decoration="none" x="478.091552734375" y="616">Put the purchased text on home page</text></g></g><g transform="translate(-206,-134) scale(1,1)"><path fill="none" stroke="#000000" d="M 546 591 L 450 547" stroke-miterlimit="10" stroke-dasharray="3"/></g><g transform="translate(-206,-134) scale(1,1)"><path fill="none" stroke="#000000" d="M 460.99244562152717 547.4076018372971 L 450 547 L 457.4846148176294 555.061050863983" stroke-miterlimit="10"/></g><g transform="translate(-206,-134) scale(1,1)"><g><path fill="none" stroke="none"/><text fill="#000000" stroke="none" font-family="Arial" font-size="13px" font-style="normal" font-weight="normal" text-decoration="none" x="502.5" y="571.5">«include»</text></g></g><g transform="translate(-206,-134) scale(1,1)"><path fill="#C0C0C0" stroke="none" d="M 383 344 C 383 334.6111584 423.7420832 327 474 327 C 524.2579168 327 565 334.6111584 565 344 C 565 353.3888416 524.2579168 361 474 361 C 423.7420832 361 383 353.3888416 383 344 Z" opacity="0.2"/></g><g transform="translate(-206,-134) scale(1,1)"><path fill="#ffffff" stroke="none" d="M 376 337 C 376 327.6111584 416.7420832 320 467 320 C 517.2579168 320 558 327.6111584 558 337 C 558 346.3888416 517.2579168 354 467 354 C 416.7420832 354 376 346.3888416 376 337 Z"/></g><g transform="translate(-206,-134) scale(1,1)"><path fill="none" stroke="#000000" d="M 376 337 C 376 327.6111584 416.7420832 320 467 320 C 517.2579168 320 558 327.6111584 558 337 C 558 346.3888416 517.2579168 354 467 354 C 416.7420832 354 376 346.3888416 376 337 Z" stroke-miterlimit="10"/></g><g transform="translate(-206,-134) scale(1,1)"><g><path fill="none" stroke="none"/><text fill="#000000" stroke="none" font-family="Arial" font-size="13px" font-style="normal" font-weight="bold" text-decoration="none" x="414.368408203125" y="344">View symbol page</text></g></g><g transform="translate(-206,-134) scale(1,1)"><path fill="none" stroke="#000000" d="M 466 319 L 461 259" stroke-miterlimit="10" stroke-dasharray="3"/></g><g transform="translate(-206,-134) scale(1,1)"><path fill="none" stroke="#000000" d="M 466.03894127416316 268.77798909978605 L 461 259 L 457.6489871461347 269.47715194378844" stroke-miterlimit="10"/></g><g transform="translate(-206,-134) scale(1,1)"><g><path fill="none" stroke="none"/><text fill="#000000" stroke="none" font-family="Arial" font-size="13px" font-style="normal" font-weight="normal" text-decoration="none" x="406.5" y="296.5">«extend»</text></g></g></g></svg>